<svg width="87" height="101" viewBox="0 0 87 101" fill="none" xmlns="http://www.w3.org/2000/svg">
    <path d="M84.8068 72.5145H84.7965L72.9979 66.4501L48.0541 80.1245L48.0387 80.1348L48.0232 80.1425C46.5812 80.923 44.9562 81.3338 43.3259 81.3338C41.6957 81.3338 40.0706 80.9204 38.6286 80.1425L38.6132 80.1348L38.5977 80.1245L13.6488 66.4475L1.84499 72.517C0.730648 73.0922 0.0290238 74.2219 0.00838779 75.4722C-0.0148277 76.7226 0.66616 77.8728 1.76761 78.4839L41.6802 100.364C42.1935 100.641 42.761 100.785 43.3285 100.785C43.896 100.785 44.4635 100.641 44.9768 100.364L84.8894 78.4839C85.9908 77.8857 86.6589 76.7251 86.6486 75.4722C86.6254 74.2219 85.9238 73.0922 84.812 72.517L84.8068 72.5145Z" fill="#00C1EF"/>
    <path d="M84.8068 46.7073H84.7964L72.9978 40.643L55.4417 50.2684L52.0729 52.1145L48.7041 53.9605L48.0541 54.3174L48.0386 54.3276L48.0231 54.3353C46.5812 55.1159 44.9561 55.5267 43.3258 55.5267C41.6956 55.5267 40.0705 55.1133 38.6286 54.3353L38.6131 54.3276L38.5976 54.3174L37.9424 53.9579L34.5736 52.1119L31.2048 50.2659L13.6487 40.6404L1.84492 46.7099C0.725414 47.285 0.0237908 48.4122 0.000575287 49.6625C-0.0226402 50.9129 0.658348 52.0631 1.75979 52.6742L13.739 59.2418L17.1078 61.0878L20.4766 62.9338L41.675 74.5543C42.1883 74.8316 42.7558 74.9753 43.3233 74.9753C43.8907 74.9753 44.4582 74.8316 44.9716 74.5543L66.1647 62.9364L69.5335 61.0904L72.9024 59.2444L84.8867 52.6742C85.9882 52.076 86.6563 50.9155 86.6459 49.6625C86.6227 48.4122 85.9211 47.2825 84.8093 46.7073H84.8068Z" fill="#00C1EF"/>
    <path d="M1.75979 26.8662L13.739 33.4338L17.1078 35.2798L20.4766 37.1258L38.0327 46.7513L41.5486 48.6795L41.675 48.7488C42.1883 49.0261 42.7558 49.1699 43.3233 49.1699C43.8907 49.1699 44.4582 49.0261 44.9716 48.7488L45.0928 48.6821L48.6087 46.7539L66.1647 37.1284L69.5335 35.2824L72.9024 33.4363L84.8867 26.8662C85.9882 26.2679 86.6563 25.1074 86.6459 23.8545C86.6227 22.6041 85.9211 21.4744 84.8093 20.8993H84.799L44.8813 0.382555C44.3912 0.128374 43.8546 0 43.3155 0C42.7764 0 42.2399 0.128374 41.7498 0.382555L1.83976 20.9019C0.725414 21.477 0.0237908 22.6067 0.000575287 23.8571C-0.0226402 25.1074 0.658348 26.2577 1.75979 26.8687V26.8662Z" fill="#00C1EF"/>
    </svg>
    