<svg width="352" height="101" viewBox="0 0 352 101" fill="none" xmlns="http://www.w3.org/2000/svg">
    <path d="M84.8068 72.5145H84.7965L72.9979 66.4501L48.0541 80.1245L48.0387 80.1348L48.0232 80.1425C46.5812 80.923 44.9562 81.3338 43.3259 81.3338C41.6957 81.3338 40.0706 80.9204 38.6286 80.1425L38.6132 80.1348L38.5977 80.1245L13.6488 66.4475L1.84499 72.517C0.730648 73.0922 0.0290238 74.2219 0.00838779 75.4722C-0.0148277 76.7226 0.66616 77.8728 1.76761 78.4839L41.6802 100.364C42.1935 100.641 42.761 100.785 43.3285 100.785C43.896 100.785 44.4635 100.641 44.9768 100.364L84.8894 78.4839C85.9908 77.8857 86.6589 76.7251 86.6486 75.4722C86.6254 74.2219 85.9238 73.0922 84.812 72.517L84.8068 72.5145Z" fill="#00C1EF"/>
    <path d="M84.8068 46.7073H84.7964L72.9978 40.643L55.4417 50.2684L52.0729 52.1145L48.7041 53.9605L48.0541 54.3174L48.0386 54.3276L48.0231 54.3353C46.5812 55.1159 44.9561 55.5267 43.3258 55.5267C41.6956 55.5267 40.0705 55.1133 38.6286 54.3353L38.6131 54.3276L38.5976 54.3174L37.9424 53.9579L34.5736 52.1119L31.2048 50.2659L13.6487 40.6404L1.84492 46.7099C0.725414 47.285 0.0237908 48.4122 0.000575287 49.6625C-0.0226402 50.9129 0.658348 52.0631 1.75979 52.6742L13.739 59.2418L17.1078 61.0878L20.4766 62.9338L41.675 74.5543C42.1883 74.8316 42.7558 74.9753 43.3233 74.9753C43.8907 74.9753 44.4582 74.8316 44.9716 74.5543L66.1647 62.9364L69.5335 61.0904L72.9024 59.2444L84.8867 52.6742C85.9882 52.076 86.6563 50.9155 86.6459 49.6625C86.6227 48.4122 85.9211 47.2825 84.8093 46.7073H84.8068Z" fill="#00C1EF"/>
    <path d="M1.75979 26.8662L13.739 33.4338L17.1078 35.2798L20.4766 37.1258L38.0327 46.7513L41.5486 48.6795L41.675 48.7488C42.1883 49.0261 42.7558 49.1699 43.3233 49.1699C43.8907 49.1699 44.4582 49.0261 44.9716 48.7488L45.0928 48.6821L48.6087 46.7539L66.1647 37.1284L69.5335 35.2824L72.9024 33.4363L84.8867 26.8662C85.9882 26.2679 86.6563 25.1074 86.6459 23.8545C86.6227 22.6041 85.9211 21.4744 84.8093 20.8993H84.799L44.8813 0.382555C44.3912 0.128374 43.8546 0 43.3155 0C42.7764 0 42.2399 0.128374 41.7498 0.382555L1.83976 20.9019C0.725414 21.477 0.0237908 22.6067 0.000575287 23.8571C-0.0226402 25.1074 0.658348 26.2577 1.75979 26.8687V26.8662Z" fill="#00C1EF"/>
    <path d="M283.789 56.4785C287.212 56.4785 289.987 53.7159 289.987 50.3088C289.987 46.9018 287.212 44.1392 283.789 44.1392C280.366 44.1392 277.59 46.9018 277.59 50.3088C277.59 53.7159 280.366 56.4785 283.789 56.4785Z" fill="#00C1EF"/>
    <path d="M139.803 72.5181C136.627 72.5181 133.516 71.9122 130.473 70.7003C127.426 69.4885 124.903 67.9069 122.904 65.9582L129.167 56.2171C130.602 57.5163 132.255 58.6203 134.125 59.5292C136.039 60.3944 137.693 60.8283 139.083 60.8283C140.213 60.8283 141.105 60.5459 141.758 59.9836C142.41 59.4214 142.735 58.7281 142.735 57.9065C142.735 56.9104 142.256 56.0888 141.301 55.4392C140.344 54.7896 138.779 53.9886 136.604 53.036C134.169 51.9962 132.123 50.9795 130.47 49.9833C128.817 48.9435 127.382 47.5365 126.165 45.7623C124.991 43.9446 124.403 41.6929 124.403 39.0073C124.403 36.4963 125.032 34.2241 126.296 32.1881C127.602 30.111 129.428 28.4857 131.778 27.3175C134.169 26.1057 136.932 25.4998 140.063 25.4998C142.978 25.4998 145.741 26.0415 148.348 27.1224C151.003 28.1622 153.329 29.5025 155.331 31.1482L149.264 40.8251C148.091 39.9162 146.698 39.1151 145.088 38.4219C143.478 37.685 142.042 37.3179 140.783 37.3179C139.782 37.3179 138.977 37.5567 138.368 38.0316C137.803 38.5092 137.52 39.1151 137.52 39.8494C137.52 40.7147 137.976 41.4721 138.889 42.1216C139.846 42.7276 141.348 43.485 143.391 44.3939C145.913 45.5184 148 46.6019 149.654 47.6417C151.307 48.6816 152.741 50.1091 153.959 51.9269C155.22 53.7447 155.852 55.9963 155.852 58.6819C155.852 61.3675 155.2 63.6397 153.894 65.7605C152.633 67.8376 150.784 69.4833 148.348 70.6952C145.955 71.907 143.107 72.513 139.8 72.513L139.803 72.5181Z" fill="#161616"/>
    <path d="M189.567 37.7705H179.585V71.7358H167.58V37.7705H157.401V26.2759H189.567V37.7705Z" fill="#161616"/>
    <path d="M214.705 65.2446H201.003L199.109 71.7378H186.124L201.913 26.0186H213.789L229.449 71.7378H216.531L214.705 65.2446ZM211.834 55.3726L207.854 41.3439L203.809 55.3726H211.834Z" fill="#161616"/>
    <path d="M259.271 71.7383L252.484 57.3861L245.633 71.7383H231.539L243.871 49.3319L232.127 26.2759H245.893L252.484 41.0184L259.008 26.2759H272.774L261.03 49.3319L273.363 71.7383H259.268H259.271Z" fill="#161616"/>
    <path d="M321.7 65.2446H307.998L306.104 71.7378H293.119L308.908 26.0186H320.784L336.444 71.7378H323.526L321.7 65.2446ZM318.829 55.3726L314.849 41.3439L310.804 55.3726H318.829Z" fill="#161616"/>
    <path d="M339.916 26.2759H351.921V71.7358H339.916V26.2759Z" fill="#161616"/>
    </svg>
    